<svg xmlns="http://www.w3.org/2000/svg" xmlns:xlink="http://www.w3.org/1999/xlink" width="76" height="76" viewBox="0 0 76 76">
  <defs>
    <filter id="Path_15" x="0" y="0" width="76" height="76" filterUnits="userSpaceOnUse">
      <feOffset dx="3" dy="4" input="SourceAlpha"/>
      <feGaussianBlur stdDeviation="2" result="blur"/>
      <feFlood flood-opacity="0.11"/>
      <feComposite operator="in" in2="blur"/>
      <feComposite in="SourceGraphic"/>
    </filter>
  </defs>
  <g id="twitter" transform="translate(-258 -703)">
    <g transform="matrix(1, 0, 0, 1, 258, 703)" filter="url(#Path_15)">
      <path id="Path_15-2" data-name="Path 15" d="M32,0A32,32,0,1,1,0,32,32,32,0,0,1,32,0Z" transform="translate(3 2)" fill="#e2e9f8"/>
    </g>
    <path id="twitter" d="M28.711,10.668c.02.32.02.64.02.959,0,9.754-6.6,20.992-18.66,20.992A17.072,17.072,0,0,1,0,29.307a12.075,12.075,0,0,0,1.584.091,12.24,12.24,0,0,0,8.142-3.152,6.718,6.718,0,0,1-6.132-5.117,7.374,7.374,0,0,0,1.239.114,6.213,6.213,0,0,0,1.726-.251A7.218,7.218,0,0,1,1.3,13.751V13.66a6.062,6.062,0,0,0,2.964.936A7.652,7.652,0,0,1,1.34,8.452a8.033,8.033,0,0,1,.893-3.723,18.051,18.051,0,0,0,13.523,7.721,9.331,9.331,0,0,1-.162-1.69c0-4.066,2.924-7.378,6.558-7.378a6.229,6.229,0,0,1,4.792,2.33,12.078,12.078,0,0,0,4.162-1.782,7.267,7.267,0,0,1-2.883,4.066A12.017,12.017,0,0,0,32,6.853a15.187,15.187,0,0,1-3.289,3.815Z" transform="translate(277 718.659)" fill="#00a3fb"/>
  </g>
</svg>
