<svg xmlns="http://www.w3.org/2000/svg" width="49.274" height="30.547" viewBox="0 0 49.274 30.547">
  <g id="orthopedic" transform="translate(0 127.844) rotate(-90)">
    <g id="Group_26" data-name="Group 26" transform="translate(120.2 16.645)">
      <path id="Path_1521" data-name="Path 1521" d="M365.578,243.887h-2.19a1.444,1.444,0,0,1,0-2.887h2.19a1.444,1.444,0,1,1,0,2.887Z" transform="translate(-359.378 -234.451)" fill="#b49a6a"/>
      <path id="Path_1522" data-name="Path 1522" d="M338.27,297.389a1.439,1.439,0,0,1-1.021-.423l-1.549-1.549a1.444,1.444,0,0,1,2.042-2.042l1.549,1.549a1.444,1.444,0,0,1-1.021,2.464Z" transform="translate(-335.278 -281.404)" fill="#b49a6a"/>
      <path id="Path_1523" data-name="Path 1523" d="M336.721,177.389a1.444,1.444,0,0,1-1.021-2.464l1.549-1.549a1.444,1.444,0,0,1,2.042,2.042l-1.549,1.549A1.439,1.439,0,0,1,336.721,177.389Z" transform="translate(-335.278 -172.953)" fill="#b49a6a"/>
    </g>
    <g id="Group_27" data-name="Group 27" transform="translate(97.298)">
      <path id="Path_1524" data-name="Path 1524" d="M120.437,308.858l-2.53-11.417a5.272,5.272,0,0,0-2.616-10.135,5.237,5.237,0,0,0-2.2.827,4.07,4.07,0,0,1-3.538.475,5.267,5.267,0,0,0-6.824,5.955,5.29,5.29,0,0,0,4.623,4.3l1.365,10.029Z" transform="translate(-102.125 -259.614)" fill="#b49a6a"/>
      <path id="Path_1525" data-name="Path 1525" d="M119.673.021,113.227,13.3a5.27,5.27,0,0,1-5.267,9.042,5.241,5.241,0,0,1-1.9-1.4,4.071,4.071,0,0,0-3.276-1.42,5.271,5.271,0,1,1,.664-10.463L107.483,0Z" transform="translate(-97.298)" fill="#b49a6a"/>
    </g>
  </g>
</svg>
