<svg xmlns="http://www.w3.org/2000/svg" width="28.75" height="32" viewBox="0 0 28.75 32">
  <g id="brain" transform="translate(-26)">
    <g id="Group_8" data-name="Group 8" transform="translate(42.875 5.188)">
      <g id="Group_7" data-name="Group 7" transform="translate(0)">
        <path id="Path_1511" data-name="Path 1511" d="M296.625,83a.625.625,0,1,0,.625.625A.625.625,0,0,0,296.625,83Z" transform="translate(-296 -83)" fill="#b46aa6"/>
      </g>
    </g>
    <g id="Group_10" data-name="Group 10" transform="translate(36.625 5.188)">
      <g id="Group_9" data-name="Group 9">
        <path id="Path_1512" data-name="Path 1512" d="M196.625,83a.625.625,0,1,0,.625.625A.625.625,0,0,0,196.625,83Z" transform="translate(-196 -83)" fill="#b46aa6"/>
      </g>
    </g>
    <g id="Group_12" data-name="Group 12" transform="translate(26)">
      <g id="Group_11" data-name="Group 11" transform="translate(0)">
        <path id="Path_1513" data-name="Path 1513" d="M53.945,18.68a5,5,0,0,0,.8-2.68,4.341,4.341,0,0,0-1.583-3.358A4.225,4.225,0,0,0,53.5,11a4.659,4.659,0,0,0-2.527-4.12,3.746,3.746,0,0,0-2.845-4.088,4.5,4.5,0,0,0-4-2.792,4.392,4.392,0,0,0-3.75,2.251A4.392,4.392,0,0,0,36.625,0a4.5,4.5,0,0,0-4,2.792A3.746,3.746,0,0,0,29.777,6.88,4.659,4.659,0,0,0,27.25,11a4.225,4.225,0,0,0,.333,1.642A4.341,4.341,0,0,0,26,16a5,5,0,0,0,.8,2.68,4.315,4.315,0,0,0,.5,5.6A4.536,4.536,0,0,0,31.625,29.5h.057a4.927,4.927,0,0,0,8.693-.217,4.927,4.927,0,0,0,8.693.217h.057A4.532,4.532,0,0,0,53.5,24.938a4,4,0,0,0-.056-.655,4.315,4.315,0,0,0,.5-5.6ZM39.75,9.461a2.484,2.484,0,0,0-1.25-.336.625.625,0,0,0,0,1.25,1.251,1.251,0,0,1,1.25,1.25V23.511a4.988,4.988,0,0,0-3.75-1.7.625.625,0,1,0,0,1.25,3.754,3.754,0,0,1,3.75,3.75A3.9,3.9,0,0,1,36,30.75a3.761,3.761,0,0,1-3.394-2.18.625.625,0,0,0-.638-.358l-.132.017A3.262,3.262,0,0,1,28.6,24.2a.625.625,0,0,0-.208-.627,3.111,3.111,0,0,1-1.139-2.391,3.076,3.076,0,0,1,.459-1.608,4.217,4.217,0,0,0,2.666.983.625.625,0,1,0,0-1.25A3.285,3.285,0,0,1,27.25,16a3.108,3.108,0,0,1,1.46-2.634.625.625,0,0,0,.209-.836A3.076,3.076,0,0,1,28.5,11a3.3,3.3,0,0,1,3.125-3.313A3.307,3.307,0,0,1,34.75,11,.625.625,0,1,0,36,11a4.532,4.532,0,0,0-4.375-4.563A4.053,4.053,0,0,0,31,6.487c0-.016,0-.032,0-.049A2.5,2.5,0,0,1,35.268,4.67a.625.625,0,1,0,.883-.884,3.725,3.725,0,0,0-2.073-1.053A3.158,3.158,0,0,1,36.625,1.25,3.307,3.307,0,0,1,39.75,4.563Zm10.625,11.1a4.218,4.218,0,0,0,2.666-.983,3.075,3.075,0,0,1,.459,1.608,3.112,3.112,0,0,1-1.139,2.391.625.625,0,0,0-.208.627,3.084,3.084,0,0,1,.1.733,3.256,3.256,0,0,1-3.337,3.292l-.132-.017a.625.625,0,0,0-.637.358,3.761,3.761,0,0,1-3.394,2.18A3.9,3.9,0,0,1,41,26.813a3.754,3.754,0,0,1,3.75-3.75.625.625,0,0,0,0-1.25,4.988,4.988,0,0,0-3.75,1.7V11.625a1.251,1.251,0,0,1,1.25-1.25.625.625,0,0,0,0-1.25A2.484,2.484,0,0,0,41,9.461v-4.9A3.307,3.307,0,0,1,44.125,1.25a3.158,3.158,0,0,1,2.546,1.482A3.725,3.725,0,0,0,44.6,3.785a.625.625,0,1,0,.883.884A2.5,2.5,0,0,1,49.75,6.438c0,.017,0,.033,0,.049a4.053,4.053,0,0,0-.623-.049A4.532,4.532,0,0,0,44.75,11,.625.625,0,0,0,46,11a3.13,3.13,0,1,1,6.25,0,3.076,3.076,0,0,1-.419,1.53.625.625,0,0,0,.209.836A3.108,3.108,0,0,1,53.5,16a3.285,3.285,0,0,1-3.125,3.313.625.625,0,0,0,0,1.25Z" transform="translate(-26)" fill="#b46aa6"/>
      </g>
    </g>
    <g id="Group_14" data-name="Group 14" transform="translate(31 10.375)">
      <g id="Group_13" data-name="Group 13" transform="translate(0)">
        <path id="Path_1514" data-name="Path 1514" d="M113.341,169a.625.625,0,0,0-.882-.049,3.131,3.131,0,0,1-5.208-2.329.625.625,0,0,0-1.25,0,4.381,4.381,0,0,0,3.663,4.316,1.878,1.878,0,0,1-1.788,1.309.625.625,0,1,0,0,1.25,3.13,3.13,0,0,0,3.069-2.538,4.368,4.368,0,0,0,2.348-1.077A.625.625,0,0,0,113.341,169Z" transform="translate(-106 -166)" fill="#b46aa6"/>
      </g>
    </g>
    <g id="Group_16" data-name="Group 16" transform="translate(31 24.313)">
      <g id="Group_15" data-name="Group 15" transform="translate(0)">
        <path id="Path_1515" data-name="Path 1515" d="M106.625,389a.625.625,0,0,0,0,1.25,3.307,3.307,0,0,1,3.125,3.313.625.625,0,0,0,1.25,0A4.532,4.532,0,0,0,106.625,389Z" transform="translate(-106 -389)" fill="#b46aa6"/>
      </g>
    </g>
    <g id="Group_18" data-name="Group 18" transform="translate(31.65 19.313)">
      <g id="Group_17" data-name="Group 17" transform="translate(0)">
        <path id="Path_1516" data-name="Path 1516" d="M121.373,309a5.613,5.613,0,0,0-4.894,2.851.625.625,0,1,0,1.087.616,4.365,4.365,0,0,1,3.806-2.217.625.625,0,0,0,0-1.25Z" transform="translate(-116.398 -309)" fill="#b46aa6"/>
      </g>
    </g>
    <g id="Group_20" data-name="Group 20" transform="translate(42.25 10.375)">
      <g id="Group_19" data-name="Group 19" transform="translate(0)">
        <path id="Path_1517" data-name="Path 1517" d="M291.625,172.25a1.878,1.878,0,0,1-1.788-1.309,4.381,4.381,0,0,0,3.663-4.316.625.625,0,0,0-1.25,0,3.125,3.125,0,0,1-5.208,2.329.625.625,0,0,0-.833.932,4.368,4.368,0,0,0,2.348,1.077,3.13,3.13,0,0,0,3.069,2.538.625.625,0,0,0,0-1.25Z" transform="translate(-286 -166)" fill="#b46aa6"/>
      </g>
    </g>
    <g id="Group_22" data-name="Group 22" transform="translate(44.75 24.313)">
      <g id="Group_21" data-name="Group 21" transform="translate(0)">
        <path id="Path_1518" data-name="Path 1518" d="M330.375,389A4.532,4.532,0,0,0,326,393.563a.625.625,0,0,0,1.25,0,3.307,3.307,0,0,1,3.125-3.312.625.625,0,0,0,0-1.25Z" transform="translate(-326 -389)" fill="#b46aa6"/>
      </g>
    </g>
    <g id="Group_24" data-name="Group 24" transform="translate(43.5 19.313)">
      <g id="Group_23" data-name="Group 23" transform="translate(0)">
        <path id="Path_1519" data-name="Path 1519" d="M311.519,311.851A5.613,5.613,0,0,0,306.625,309a.625.625,0,0,0,0,1.25,4.366,4.366,0,0,1,3.806,2.217.625.625,0,0,0,1.088-.616Z" transform="translate(-306 -309)" fill="#b46aa6"/>
      </g>
    </g>
  </g>
</svg>
