<svg xmlns="http://www.w3.org/2000/svg" width="36.002" height="31.502" viewBox="0 0 36.002 31.502">
  <path id="Icon_awesome-heartbeat" data-name="Icon awesome-heartbeat" d="M22.514,17.142,19.02,24.131a1.124,1.124,0,0,1-2.032-.042l-4-8.88L10.877,20.25H4.261L17.093,33.363a1.253,1.253,0,0,0,1.807,0L31.739,20.25H24.068ZM33.307,5.2l-.169-.176a9.211,9.211,0,0,0-13.177,0L18,7.031l-1.962-2a9.2,9.2,0,0,0-13.177,0L2.693,5.2A9.654,9.654,0,0,0,2.18,18h7.2L11.9,11.939a1.127,1.127,0,0,1,2.067-.028L18.063,21l3.445-6.884a1.123,1.123,0,0,1,2.011,0L25.46,18h8.36a9.654,9.654,0,0,0-.513-12.8Z" transform="translate(0.001 -2.246)" fill="#6ab4b4"/>
</svg>
