<svg xmlns="http://www.w3.org/2000/svg" width="31.466" height="31.508" viewBox="0 0 31.466 31.508">
  <g id="dental" transform="translate(-0.336 -0.001)">
    <g id="Group_25" data-name="Group 25" transform="translate(0.336 0.001)">
      <path id="Path_1520" data-name="Path 1520" d="M31.437,7.478A10.156,10.156,0,0,0,23.772.229h0a10.146,10.146,0,0,0-7.7,1.415,10.171,10.171,0,0,0-12.4,16.038c1.519,1.4,2.257,3.48,2.257,6.369a9.785,9.785,0,0,0,1.432,5.577,4.046,4.046,0,0,0,3.229,1.88A2.642,2.642,0,0,0,13.3,28.764V25.233a2.861,2.861,0,0,1,2.81-3.008,2.877,2.877,0,0,1,2.725,3.008v3.532a2.642,2.642,0,0,0,2.719,2.744,4.046,4.046,0,0,0,3.229-1.88,9.785,9.785,0,0,0,1.432-5.577c0-2.888.738-4.972,2.257-6.369A10.167,10.167,0,0,0,31.437,7.478Zm-15.076,3.61-3.714,1.239L11.409,16.04a.922.922,0,0,1-1.75,0L8.42,12.327,4.707,11.088a.922.922,0,0,1,0-1.75L8.42,8.1,9.659,4.386a.924.924,0,0,1,1.75,0L12.648,8.1l3.714,1.239a.922.922,0,0,1,0,1.75Z" transform="translate(-0.336 -0.001)" fill="#6a70b4"/>
    </g>
  </g>
</svg>
