<svg xmlns="http://www.w3.org/2000/svg" width="18" height="14.4" viewBox="0 0 18 14.4">
  <path id="Icon_awesome-user-check" data-name="user-check" d="M6.3,7.2A3.6,3.6,0,1,0,2.7,3.6,3.6,3.6,0,0,0,6.3,7.2Zm2.52.9H8.35a4.9,4.9,0,0,1-4.1,0H3.78A3.781,3.781,0,0,0,0,11.88v1.17A1.35,1.35,0,0,0,1.35,14.4h9.9a1.35,1.35,0,0,0,1.35-1.35V11.88A3.781,3.781,0,0,0,8.82,8.1ZM17.9,4.489l-.782-.79a.334.334,0,0,0-.473,0L13.7,6.621l-1.28-1.288a.334.334,0,0,0-.472,0l-.79.785a.334.334,0,0,0,0,.472l2.3,2.315a.334.334,0,0,0,.473,0L17.9,4.961a.336.336,0,0,0,0-.472Z" fill="#f7f7f7"/>
</svg>
