<svg id="Component_3_1" data-name="Component 3 – 1" xmlns="http://www.w3.org/2000/svg" width="414.448" height="897.49" viewBox="0 0 414.448 897.49">
  <rect id="Backgroung_Shape" data-name="Backgroung Shape" width="414" height="896" transform="translate(0 0.891)" fill="#265dd7"/>
  <path id="Path_2" data-name="Path 2" d="M1372,466.325s-129.406-2.675-149.1-117.874-13.557-194.923-113.057-183.44-152.286,63.98-152.286,63.98V21.052H1372Z" transform="translate(-957.552 -20.109)" fill="#2663e2"/>
  <path id="Path_3" data-name="Path 3" d="M0,0S129.406,2.675,149.1,117.874,162.662,312.8,262.162,301.315s179.441,19.711,113.9,55.7S0,445.273,0,445.273Z" transform="translate(0 451.891)" fill="#2663e2"/>
  <path id="Path_1542" data-name="Path 1542" d="M978,1443.883s80.729.242,112.1-57.245,45.578-96.528,127.61-96.528H978Z" transform="translate(-978 -1290.109)" fill="#71d5d3"/>
  <path id="Path_1541" data-name="Path 1541" d="M1342.852,1998.756s-57.2-17.992-68.512,52.754-62.152,95.9-62.152,95.9h130.664Z" transform="translate(-928.404 -1249.92)" fill="#fda31e"/>
</svg>
