<svg xmlns="http://www.w3.org/2000/svg" width="25.668" height="25.668" viewBox="0 0 25.668 25.668">
  <g id="writing" transform="translate(-0.5)">
    <path id="Path_1557" data-name="Path 1557" d="M277.674,65.011l-3.19-3.19-5.94,5.99L271.734,71Zm0,0" transform="translate(-254.605 -58.721)" fill="#d79bcd"/>
    <path id="Path_1558" data-name="Path 1558" d="M210.392,209.9a.752.752,0,0,0,.984.983l3.819-1.976-2.829-2.829Zm0,0" transform="translate(-199.312 -195.751)" fill="#d79bcd"/>
    <path id="Path_1559" data-name="Path 1559" d="M413.26,3.41a.752.752,0,0,0,0-1.064L411.133.22a.752.752,0,0,0-1.064,0l-1.816,1.816,3.19,3.19Zm0,0" transform="translate(-387.312 0)" fill="#d79bcd"/>
    <path id="Path_1560" data-name="Path 1560" d="M2.756,136.04h.752v3.81a.752.752,0,0,0,1.284.532l4.342-4.342H17.9a2.259,2.259,0,0,0,2.256-2.256v-7.466l-2.372,2.372a2.235,2.235,0,0,1-.72.484l-4.306,2.232a2.374,2.374,0,0,1-.985.229,2.222,2.222,0,0,1-.648-.107H5.764a.752.752,0,1,1,0-1.5H9.572a2.251,2.251,0,0,1,.12-1.515L12.012,124a2.056,2.056,0,0,1,.436-.615L14.835,121H2.756A2.259,2.259,0,0,0,.5,123.256v10.528A2.259,2.259,0,0,0,2.756,136.04Zm0,0" transform="translate(0 -114.934)" fill="#de8dd1"/>
  </g>
</svg>
