<svg id="blood" xmlns="http://www.w3.org/2000/svg" width="20.208" height="27.937" viewBox="0 0 20.208 27.937">
  <g id="Group_32" data-name="Group 32" transform="translate(13.167)">
    <g id="Group_31" data-name="Group 31">
      <path id="Path_1527" data-name="Path 1527" d="M286.423,2.467c-.756-.666-1.408-1.243-1.408-2.115A.359.359,0,0,0,284.664,0c-.511,0-3.511,3.213-3.511,5.391a3.521,3.521,0,1,0,7.041,0v0A3.963,3.963,0,0,0,286.423,2.467Z" transform="translate(-281.153 0)" fill="#f29184"/>
    </g>
  </g>
  <g id="Group_34" data-name="Group 34" transform="translate(0 4.114)">
    <g id="Group_33" data-name="Group 33">
      <path id="Path_1528" data-name="Path 1528" d="M77.6,74.7h0c-2.144-1.895-4.182-3.683-4.182-6.414a.363.363,0,0,0-.359-.368h-.01c-.848,0-9.256,8.614-9.256,14.538a9.283,9.283,0,1,0,18.565,0v0C82.368,78.91,79.945,76.771,77.6,74.7ZM73.085,89.07a.343.343,0,1,1,0-.686,5.406,5.406,0,0,0,5.4-5.4.343.343,0,0,1,.686,0A6.092,6.092,0,0,1,73.085,89.07Z" transform="translate(-63.793 -67.919)" fill="#f29184"/>
    </g>
  </g>
</svg>
