<svg xmlns="http://www.w3.org/2000/svg" width="31.5" height="36" viewBox="0 0 31.5 36">
  <path id="Icon_awesome-hospital" data-name="Icon awesome-hospital" d="M31.5,34.594V36H0V34.594a.844.844,0,0,1,.844-.844H2.25V8.438A1.687,1.687,0,0,1,3.938,6.75h6.188V1.688A1.687,1.687,0,0,1,11.813,0h7.875a1.687,1.687,0,0,1,1.688,1.688V6.75h6.188A1.687,1.687,0,0,1,29.25,8.438V33.75h1.406A.844.844,0,0,1,31.5,34.594ZM21.656,13.5H18.844a.844.844,0,0,0-.844.844v2.813a.844.844,0,0,0,.844.844h2.813a.844.844,0,0,0,.844-.844V14.344A.844.844,0,0,0,21.656,13.5ZM9.844,18h2.813a.844.844,0,0,0,.844-.844V14.344a.844.844,0,0,0-.844-.844H9.844A.844.844,0,0,0,9,14.344v2.813A.844.844,0,0,0,9.844,18Zm7.313,9H14.344a.844.844,0,0,0-.844.844V33.75H18V27.844A.844.844,0,0,0,17.156,27Zm4.5-6.75H18.844a.844.844,0,0,0-.844.844v2.813a.844.844,0,0,0,.844.844h2.813a.844.844,0,0,0,.844-.844V21.094A.844.844,0,0,0,21.656,20.25Zm-8.156.844a.844.844,0,0,0-.844-.844H9.844A.844.844,0,0,0,9,21.094v2.813a.844.844,0,0,0,.844.844h2.813a.844.844,0,0,0,.844-.844ZM12.8,6.75h1.828V8.578A.422.422,0,0,0,15.047,9h1.406a.422.422,0,0,0,.422-.422V6.75H18.7a.422.422,0,0,0,.422-.422V4.922A.422.422,0,0,0,18.7,4.5H16.875V2.672a.422.422,0,0,0-.422-.422H15.047a.422.422,0,0,0-.422.422V4.5H12.8a.422.422,0,0,0-.422.422V6.328A.422.422,0,0,0,12.8,6.75Z" fill="#53a7db"/>
</svg>
