<svg xmlns="http://www.w3.org/2000/svg" width="33.575" height="38.861" viewBox="0 0 33.575 38.861">
  <g id="doctor" style="isolation: isolate">
    <g id="Group_36" data-name="Group 36" transform="translate(9.194)">
      <g id="Group_35" data-name="Group 35">
        <path id="Path_1529" data-name="Path 1529" d="M159.9,0A7.6,7.6,0,0,0,152.3,7.594v3.934a7.593,7.593,0,1,0,15.186,0V7.594A7.6,7.6,0,0,0,159.9,0Z" transform="translate(-152.304)" fill="#7dcfed"/>
      </g>
    </g>
    <g id="Group_38" data-name="Group 38" transform="translate(0 20.355)">
      <g id="Group_37" data-name="Group 37">
        <path id="Path_1530" data-name="Path 1530" d="M67.54,270.559a19.26,19.26,0,0,0-10.943-8.65.3.3,0,0,0-.3.074A31.706,31.706,0,0,1,50.8,266.16a39.45,39.45,0,0,1-5.505-4.176.3.3,0,0,0-.3-.074,19.255,19.255,0,0,0-10.943,8.65.3.3,0,0,0,0,.307,19.472,19.472,0,0,0,33.491,0A.3.3,0,0,0,67.54,270.559Zm-6.419,2.265a.318.318,0,0,1-.327.3H58.738a.354.354,0,0,0-.35.312v2.127a.26.26,0,0,1-.257.3H56.284a.316.316,0,0,1-.325-.3v-2.127a.294.294,0,0,0-.283-.312H53.53a.3.3,0,0,1-.306-.3v-1.831a.305.305,0,0,1,.306-.3h2.145a.287.287,0,0,0,.282-.3v-2.129a.32.32,0,0,1,.325-.3H58.11a.279.279,0,0,1,.277.3v2.135a.323.323,0,0,0,.33.3h2.077a.329.329,0,0,1,.327.309Z" transform="translate(-34.007 -261.896)" fill="#7dcfed"/>
      </g>
    </g>
  </g>
</svg>
