<svg xmlns="http://www.w3.org/2000/svg" width="38.974" height="26.663" viewBox="0 0 38.974 26.663">
  <g id="hospital" transform="translate(0 -14.926)">
    <path id="Path_1532" data-name="Path 1532" d="M36.793,38.746a1.375,1.375,0,0,0,.072-.436V22.285a1.376,1.376,0,0,0-1.376-1.375H27.832V37.966a2.307,2.307,0,0,1-.137.78h-.9a1.375,1.375,0,0,0,.072-.436V16.3a1.376,1.376,0,0,0-1.376-1.375H13.48A1.375,1.375,0,0,0,12.1,16.3V38.31a1.375,1.375,0,0,0,.072.436h-.9a2.307,2.307,0,0,1-.137-.78V20.91H3.668a1.375,1.375,0,0,0-1.375,1.375V38.31a1.386,1.386,0,0,0,.071.436H0v2.843H38.974V38.746ZM6.419,33.128H4.447V31.157H6.419Zm0-3.461H4.447V27.7H6.419Zm0-3.347H4.447V24.348H6.419Zm3.072,6.808H7.52V31.157H9.491Zm0-3.461H7.52V27.7H9.491Zm0-3.347H7.52V24.348H9.491ZM22.547,38.654H16.759V31.432h5.789ZM19.487,25.242a4.849,4.849,0,1,1,4.849-4.849A4.849,4.849,0,0,1,19.487,25.242ZM32,33.128H30.033V31.157H32Zm0-3.461H30.033V27.7H32Zm0-3.347H30.033V24.348H32Zm3.072,6.808H33.1V31.157h1.971Zm0-3.461H33.1V27.7h1.971Zm0-3.347H33.1V24.348h1.971ZM20.69,19.19h1.857V21.6H20.69v1.858H18.283V21.6H16.426V19.19h1.857V17.333H20.69Z" transform="translate(0 0)" fill="#72cbbe"/>
  </g>
</svg>
