<svg xmlns="http://www.w3.org/2000/svg" width="24.954" height="32" viewBox="0 0 24.954 32">
  <g id="Group_39" data-name="Group 39" transform="translate(-11.788 -1)">
    <path id="Path_1533" data-name="Path 1533" d="M18.228,48.01c-.162.486-.312.854-.407,1.236-.429,1.73-.829,3.467-1.275,5.192a1.1,1.1,0,0,1-.5.644,2.765,2.765,0,0,0-1.606,3.106,2.725,2.725,0,0,0,5.275.187,2.648,2.648,0,0,0-1.46-3.211c-.338-.173-.467-.352-.363-.714.64-2.236,1.257-4.479,1.934-6.7a1.15,1.15,0,0,1,.727-.647,17.457,17.457,0,0,1,7.01-.1.722.722,0,0,1,.7.659c.166,1.08.356,2.156.543,3.233.072.414-.124.614-.461.845a30.068,30.068,0,0,0-3.13,2.33,3.6,3.6,0,0,0-1.25,2.858A2.881,2.881,0,0,0,25.4,59.33c.213.135.624-.042.944-.075-.053-.313,0-.734-.177-.922-1.1-1.143-1.249-1.982-.155-3.143a32.711,32.711,0,0,1,3.057-2.571,8.573,8.573,0,0,1,2.82,3.919,1.715,1.715,0,0,1-1.022,2.288c-.451.225-.837.488-.556,1.026s.759.355,1.186.157a3.094,3.094,0,0,0,1.658-3.883,9.645,9.645,0,0,0-2.592-3.957,1.86,1.86,0,0,1-.423-.971c-.168-1.124-.277-2.256-.416-3.454a3.15,3.15,0,0,1,.491.168,11.486,11.486,0,0,1,6.5,10.464c.04,1.45.01,2.9,0,4.355,0,.867-.177,1.04-1.052,1.04q-11.42,0-22.84,0c-.873,0-1.063-.169-1.045-1.042a51.638,51.638,0,0,1,.23-6.479,11,11,0,0,1,5.651-8A5.428,5.428,0,0,1,18.228,48.01Z" transform="translate(0 -30.771)" fill="#fabb85"/>
    <path id="Path_1534" data-name="Path 1534" d="M35.629,14.884a6.942,6.942,0,1,1,6.948-6.936A6.94,6.94,0,0,1,35.629,14.884Z" transform="translate(-11.371 0)" fill="#fabb85"/>
  </g>
</svg>
