<svg id="form" xmlns="http://www.w3.org/2000/svg" width="22.244" height="28.615" viewBox="0 0 22.244 28.615">
  <path id="Path_1531" data-name="Path 1531" d="M77.639,1.844H75.667V3.868a1.443,1.443,0,0,1-1.441,1.441H62.018a1.443,1.443,0,0,1-1.441-1.441V1.844H58.6A1.607,1.607,0,0,0,57,3.449V27.01a1.606,1.606,0,0,0,1.6,1.6H77.639a1.606,1.606,0,0,0,1.6-1.6V3.449A1.607,1.607,0,0,0,77.639,1.844ZM63.2,22.747H61.415a.838.838,0,0,1,0-1.677H63.2a.838.838,0,0,1,0,1.677Zm0-3.577H61.415a.838.838,0,0,1,0-1.677H63.2a.838.838,0,0,1,0,1.677Zm.95-7.545a.839.839,0,0,1,.838-.838h2.291V8.5a.838.838,0,0,1,1.677,0v2.291h2.291a.838.838,0,0,1,0,1.677H68.96v2.291a.838.838,0,1,1-1.677,0V12.463H64.992A.839.839,0,0,1,64.154,11.625ZM74.828,22.747h-7.6a.838.838,0,0,1,0-1.677h7.6a.838.838,0,0,1,0,1.677Zm0-3.577h-7.6a.838.838,0,0,1,0-1.677h7.6a.838.838,0,0,1,0,1.677ZM73.99,0H62.254V3.633H73.99Z" transform="translate(-57)" fill="#f591af"/>
</svg>
