<svg xmlns="http://www.w3.org/2000/svg" width="17.068" height="17.023" viewBox="0 0 17.068 17.023"><g transform="translate(0.83 0.75)"><path d="M7.731,0A7.688,7.688,0,0,0,.874,11.246l.154.3a1,1,0,0,1,.073.769A15.225,15.225,0,0,0,.552,14.1c0,.307.088.483.418.476a14.046,14.046,0,0,0,1.723-.5,1.138,1.138,0,0,1,.733.044c.213.1.645.366.66.366A7.691,7.691,0,1,0,7.731,0Z" transform="translate(0 0)" fill="none" stroke="#f2f3f4" stroke-linecap="round" stroke-linejoin="round" stroke-miterlimit="10" stroke-width="1.5"/><ellipse cx="0.367" cy="0.366" rx="0.367" ry="0.366" transform="translate(3.698 7.321)" fill="#200e32" stroke="#f2f3f4" stroke-linecap="round" stroke-linejoin="round" stroke-miterlimit="10" stroke-width="1.5"/><ellipse cx="0.367" cy="0.366" rx="0.367" ry="0.366" transform="translate(7.364 7.321)" fill="#200e32" stroke="#f2f3f4" stroke-linecap="round" stroke-linejoin="round" stroke-miterlimit="10" stroke-width="1.5"/><ellipse cx="0.367" cy="0.366" rx="0.367" ry="0.366" transform="translate(11.031 7.321)" fill="#200e32" stroke="#f2f3f4" stroke-linecap="round" stroke-linejoin="round" stroke-miterlimit="10" stroke-width="1.5"/></g></svg>