<svg xmlns="http://www.w3.org/2000/svg" width="18.98" height="20.011" viewBox="0 0 18.98 20.011"><g transform="translate(0.75 0.861)"><path d="M6.125,17.27V14.448a1.312,1.312,0,0,1,1.31-1.306H10.09a1.312,1.312,0,0,1,1.319,1.306h0v2.83A1.127,1.127,0,0,0,12.515,18.4h1.77a3.179,3.179,0,0,0,3.2-3.163h0V7.211a2.244,2.244,0,0,0-.885-1.752L10.541.63a2.926,2.926,0,0,0-3.629,0L.885,5.467A2.227,2.227,0,0,0,0,7.22v8.017A3.179,3.179,0,0,0,3.2,18.4h1.77a1.136,1.136,0,0,0,1.142-1.13h0" fill="none" stroke="#f2f3f4" stroke-linecap="round" stroke-linejoin="round" stroke-miterlimit="10" stroke-width="1.5"/></g></svg>