<svg xmlns="http://www.w3.org/2000/svg" width="14.031" height="17.384" viewBox="0 0 14.031 17.384"><g transform="translate(0.75 0.75)"><circle cx="3.948" cy="3.948" r="3.948" transform="translate(2.314 0)" fill="none" stroke="#f2f3f4" stroke-linecap="round" stroke-linejoin="round" stroke-miterlimit="10" stroke-width="1.5"/><path d="M0,2.492a1.83,1.83,0,0,1,.182-.8A3.34,3.34,0,0,1,2.511.352,13.871,13.871,0,0,1,4.447.079a20.7,20.7,0,0,1,3.623,0,14.03,14.03,0,0,1,1.936.272,3.214,3.214,0,0,1,2.33,1.339,1.876,1.876,0,0,1,0,1.611,3.182,3.182,0,0,1-2.33,1.331,12.986,12.986,0,0,1-1.936.28,21.336,21.336,0,0,1-2.95.045,3.36,3.36,0,0,1-.673-.045,12.744,12.744,0,0,1-1.929-.28A3.2,3.2,0,0,1,.182,3.3,1.883,1.883,0,0,1,0,2.492Z" transform="translate(0 10.895)" fill="none" stroke="#f2f3f4" stroke-linecap="round" stroke-linejoin="round" stroke-miterlimit="10" stroke-width="1.5"/></g></svg>